<svg id="レイヤー_2" data-name="レイヤー 2" xmlns="http://www.w3.org/2000/svg" viewBox="0 0 521.48 174.64"><defs><style>.cls-1{fill:#040000;}.cls-2{fill:#924b98;}.cls-3{fill:none;}.cls-4{fill:#fff;}</style></defs><rect class="cls-1" x="3.12" y="81.4" width="28.91" height="90.22"/><circle class="cls-2" cx="17.57" cy="45.26" r="17.57"/><path class="cls-3" d="M524.25,361.31C491,361.31,464,388.88,464,422.88s27,61.57,60.24,61.57l.84,0a59.53,59.53,0,0,0,43.59-20l-9.44-8.72-4-70.47,9.48-7.93a59.38,59.38,0,0,0-39.63-16Zm.84,21.39v3.83a38.28,38.28,0,0,0,0,74.42v16.14a51.43,51.43,0,0,1-36.9-15.63,48.5,48.5,0,0,1-3.37-3.79,52.77,52.77,0,0,1-4.37-6.27,53.64,53.64,0,0,1-4.38-9.32c-.3-.81-.57-1.64-.82-2.48a54.24,54.24,0,0,1-2.35-15.86h0a54.24,54.24,0,0,1,2.35-15.86c.25-.84.52-1.66.82-2.48a53.64,53.64,0,0,1,4.38-9.32,52.77,52.77,0,0,1,4.37-6.27,50.39,50.39,0,0,1,3.37-3.79,51.47,51.47,0,0,1,36.9-15.63Z" transform="translate(-334.54 -333.63)"/><path d="M429.2,424.76a91.05,91.05,0,0,1,40.92-76.05H447.36v-6.58a8.47,8.47,0,0,0-8.39-8.5H419.41a8.47,8.47,0,0,0-8.4,8.5v6.58h-7a12,12,0,0,0-11.85,12v135.5a12,12,0,0,0,11.85,12h79.63A91.15,91.15,0,0,1,429.2,424.76Z" transform="translate(-334.54 -333.63)"/><path d="M484.82,388.81a52.77,52.77,0,0,0-4.37,6.27,53.64,53.64,0,0,0-4.38,9.32c-.3.82-.57,1.64-.82,2.48a54.24,54.24,0,0,0-2.35,15.86h0a54.24,54.24,0,0,0,2.35,15.86c.25.84.52,1.67.82,2.48a53.64,53.64,0,0,0,4.38,9.32,52.77,52.77,0,0,0,4.37,6.27,48.5,48.5,0,0,0,3.37,3.79,51.43,51.43,0,0,0,36.9,15.63V460a38.28,38.28,0,0,1,0-74.42V369.39A51.47,51.47,0,0,0,488.19,385,50.39,50.39,0,0,0,484.82,388.81Z" transform="translate(-334.54 -333.63)"/><path class="cls-4" d="M611.48,423.2c0-.19,0-.37,0-.55,0,.24,0,.49,0,.74Z" transform="translate(-334.54 -333.63)"/><path class="cls-1" d="M705.09,410.92h21.35v14.47h.37a31.94,31.94,0,0,1,10.4-12.3,26.36,26.36,0,0,1,15.59-4.71c.87,0,1.79,0,2.79.09a11.13,11.13,0,0,1,2.6.45v19.91a32.27,32.27,0,0,0-3.81-.72,27,27,0,0,0-3.06-.18q-7.62,0-12.26,2.71a22.13,22.13,0,0,0-7.24,6.52,22.9,22.9,0,0,0-3.52,7.78,29,29,0,0,0-.93,6.34v46.51H705.09Z" transform="translate(-334.54 -333.63)"/><path class="cls-1" d="M597,457.59A46.9,46.9,0,0,1,600.6,439a43.65,43.65,0,0,1,9.71-14.32,42.65,42.65,0,0,1,14.53-9.19,50.79,50.79,0,0,1,35.7,0,42.74,42.74,0,0,1,14.53,9.19A43.65,43.65,0,0,1,684.78,439a46.9,46.9,0,0,1,3.59,18.64,47.61,47.61,0,0,1-3.59,18.74,43.33,43.33,0,0,1-24.24,23.95,48.16,48.16,0,0,1-35.7,0,43.33,43.33,0,0,1-24.24-23.95A47.61,47.61,0,0,1,597,457.59Zm21.35,0a35.53,35.53,0,0,0,1.49,10.09,28.14,28.14,0,0,0,4.46,9,23.55,23.55,0,0,0,7.53,6.48,24.62,24.62,0,0,0,21.7,0,23.66,23.66,0,0,0,7.53-6.48,28.14,28.14,0,0,0,4.46-9A35.53,35.53,0,0,0,667,457.59a34.6,34.6,0,0,0-1.49-10,28.19,28.19,0,0,0-4.46-8.92,23.12,23.12,0,0,0-36.76,0,28.19,28.19,0,0,0-4.46,8.92A34.6,34.6,0,0,0,618.36,457.59Z" transform="translate(-334.54 -333.63)"/><path class="cls-1" d="M856,455.41v2.9a23.53,23.53,0,0,1-.19,2.9H788.46A21,21,0,0,0,791,469.8a21.83,21.83,0,0,0,5.63,6.7,28.23,28.23,0,0,0,7.94,4.44,26.62,26.62,0,0,0,9.23,1.63,30,30,0,0,0,14-3,26.06,26.06,0,0,0,9.42-8.24L852,482.93q-13.11,17.37-38,17.38a55.07,55.07,0,0,1-19-3.17,45,45,0,0,1-15-9,40.43,40.43,0,0,1-10-14.21,48.15,48.15,0,0,1-3.6-19.1,49,49,0,0,1,3.6-19.1,43.46,43.46,0,0,1,9.87-14.66,44.26,44.26,0,0,1,14.86-9.41,50.44,50.44,0,0,1,18.55-3.35,47.71,47.71,0,0,1,17.08,3,37.24,37.24,0,0,1,13.56,8.87,41.06,41.06,0,0,1,9,14.67A59.48,59.48,0,0,1,856,455.41Zm-22.15-9.77a26.66,26.66,0,0,0-1.2-8,18.32,18.32,0,0,0-3.79-6.69,18.55,18.55,0,0,0-6.55-4.62,23.28,23.28,0,0,0-9.32-1.72,25.19,25.19,0,0,0-16.89,5.88,21.29,21.29,0,0,0-7.66,15.12Z" transform="translate(-334.54 -333.63)"/><path d="M568.68,464.42a59.53,59.53,0,0,1-43.59,20l-.84,0C491,484.45,464,456.88,464,422.88s27-61.57,60.24-61.57l.84,0a59.38,59.38,0,0,1,39.63,16l19.42-16.25a86.93,86.93,0,0,0-98.46-13.34,84.91,84.91,0,0,0-46.45,75.49c0,42.43,31.46,77.6,72.6,84a87.4,87.4,0,0,0,13.53,1.05,86.36,86.36,0,0,0,62.26-26.32Z" transform="translate(-334.54 -333.63)"/></svg>